<svg width="40" height="40" viewBox="0 0 40 40" fill="none" xmlns="http://www.w3.org/2000/svg">
<g clip-path="url(#clip0_56_6440)">
<path d="M20 40C31.0278 40 39.9995 31.0279 39.9995 19.9999C39.9995 8.97208 31.0278 0 20 0C8.97214 0 0.000244141 8.97208 0.000244141 19.9999C0.000244141 31.0279 8.97214 40 20 40ZM20 2.73784C29.5182 2.73784 37.2617 10.4815 37.2619 19.9999C37.2619 29.5183 29.5183 37.262 20 37.2622C10.4818 37.262 2.73827 29.5183 2.73827 19.9997C2.73827 10.4817 10.4818 2.73784 20 2.73784Z" fill="#34A1F4"/>
<path d="M17.3142 28.5661C17.8488 29.1005 18.7156 29.1003 19.2501 28.5661C19.7849 28.0313 19.7849 27.1647 19.2499 26.6299L13.9896 21.3698L29.2224 21.3683C29.9784 21.3681 30.5911 20.7554 30.5911 19.999C30.5909 19.243 29.9782 18.6305 29.2222 18.6305L13.9889 18.6319L19.2504 13.3707C19.785 12.8361 19.785 11.9691 19.2504 11.4347C18.983 11.1675 18.6328 11.0337 18.2823 11.0337C17.9321 11.0337 17.5818 11.1675 17.3144 11.4345L9.71619 19.0326C9.45938 19.2892 9.31519 19.6373 9.31519 20.0005C9.31537 20.3637 9.45956 20.7116 9.71637 20.9688L17.3142 28.5661Z" fill="#34A1F4"/>
</g>
<defs>
<clipPath id="clip0_56_6440">
<rect width="40" height="40" fill="white"/>
</clipPath>
</defs>
</svg>
